<svg width="530" height="530" viewBox="0 0 530 530" fill="none" xmlns="http://www.w3.org/2000/svg">
<path d="M84 0C330.319 0 530 199.681 530 446C530 692.319 330.319 892 84 892C-162.319 892 -362 692.319 -362 446C-362 199.681 -162.319 4.12552e-06 84 0ZM84 93.6357C-110.606 93.6358 -268.364 251.394 -268.364 446C-268.364 640.606 -110.606 798.364 84 798.364C278.606 798.364 436.364 640.606 436.364 446C436.364 251.394 278.606 93.6357 84 93.6357Z" fill="#808080"/>
<path d="M353.818 446C353.818 595.016 233.016 715.818 84 715.818C-65.0162 715.818 -185.818 595.016 -185.818 446C-185.818 296.984 -65.0162 176.182 84 176.182C233.016 176.182 353.818 296.984 353.818 446Z" fill="#808080"/>
</svg>
